<?xml version="1.0" encoding="UTF-8" standalone="no"?>
<!-- Created with Inkscape (http://www.inkscape.org/) -->

<svg
   width="210mm"
   height="297mm"
   viewBox="0 0 210 297"
   version="1.1"
   id="svg5"
   xml:space="preserve"
   inkscape:version="1.2.2 (732a01da63, 2022-12-09)"
   sodipodi:docname="book.svg"
   xmlns:inkscape="http://www.inkscape.org/namespaces/inkscape"
   xmlns:sodipodi="http://sodipodi.sourceforge.net/DTD/sodipodi-0.dtd"
   xmlns="http://www.w3.org/2000/svg"
   xmlns:svg="http://www.w3.org/2000/svg"><sodipodi:namedview
     id="namedview7"
     pagecolor="#ffffff"
     bordercolor="#999999"
     borderopacity="1"
     inkscape:showpageshadow="0"
     inkscape:pageopacity="0"
     inkscape:pagecheckerboard="0"
     inkscape:deskcolor="#d1d1d1"
     inkscape:document-units="mm"
     showgrid="false"
     inkscape:zoom="0.84096521"
     inkscape:cx="96.912452"
     inkscape:cy="374.5696"
     inkscape:window-width="2560"
     inkscape:window-height="1369"
     inkscape:window-x="-8"
     inkscape:window-y="-8"
     inkscape:window-maximized="1"
     inkscape:current-layer="layer1" /><defs
     id="defs2" /><g
     inkscape:label="Calque 1"
     inkscape:groupmode="layer"
     id="layer1"><g
       id="g302"
       transform="translate(-3.6024728,6.3332556)"><path
         style="fill:#fefefe;stroke-width:1"
         d="M 36.720058,135.91525 V 68.181923 l 13.295312,0.03069 c 7.312421,0.01688 13.057187,0.08357 12.766145,0.148193 -2.391723,0.53108 -4.64584,2.086135 -5.965791,4.115639 -2.001096,3.076807 -1.864181,-1.870447 -1.781293,64.364845 l 0.07417,59.26667 0.604135,1.49412 c 1.040432,2.57316 3.265476,4.68984 5.899085,5.61177 1.08594,0.38015 0.236633,0.41038 -11.861032,0.4221 l -13.030729,0.0126 z m 117.210412,13.14037 c 0,-30.02612 -0.079,-60.506122 -0.17551,-67.733326 l -0.17552,-13.140371 h 9.30364 9.30364 v 67.733327 67.73333 h -9.12813 -9.12812 z M 84.609639,115.67463 v -8.86354 h 26.590621 26.59063 v 8.86354 8.86354 H 111.20026 84.609639 Z"
         id="path312" /><path
         style="fill:#d7d7d7;stroke-width:1"
         d="m 153.73134,145.37411 -0.0654,-58.406771 h -45.36612 c -44.960064,0 -45.378977,-0.0048 -46.803418,-0.537765 -2.941998,-1.100743 -5.042042,-3.38441 -5.831507,-6.341402 -0.345554,-1.294294 -0.397855,4.966701 -0.472977,56.620828 l -0.08446,58.07604 -0.06555,-58.74322 c -0.06291,-56.373117 -0.04588,-58.814171 0.42204,-60.501627 0.868534,-3.132202 2.757586,-5.352207 5.730118,-6.734006 1.016907,-0.472715 2.846181,-0.494705 46.733224,-0.561784 l 45.67489,-0.06981 0.18056,17.532311 c 0.0993,9.642772 0.1431,40.154186 0.0973,67.803136 l -0.0832,50.27083 z m -9.59045,-64.227604 c 0,-0.526815 -0.17639,-0.529167 -39.6875,-0.529167 -39.51111,0 -39.6875,0.0024 -39.6875,0.529167 0,0.526814 0.17639,0.529166 39.6875,0.529166 39.51111,0 39.6875,-0.0024 39.6875,-0.529166 z m 0,-3.439583 c 0,-0.526815 -0.17639,-0.529167 -39.6875,-0.529167 -39.51111,0 -39.6875,0.0024 -39.6875,0.529167 0,0.526814 0.17639,0.529166 39.6875,0.529166 39.51111,0 39.6875,-0.0024 39.6875,-0.529166 z m 0,-3.439584 c 0,-0.526814 -0.17639,-0.529166 -39.6875,-0.529166 -39.51111,0 -39.6875,0.0024 -39.6875,0.529166 0,0.526815 0.17639,0.529167 39.6875,0.529167 39.51111,0 39.6875,-0.0024 39.6875,-0.529167 z M 97.925123,106.61269 c 7.396277,-0.0391 19.421587,-0.0391 26.722917,3e-5 7.30133,0.0391 1.24983,0.0711 -13.44778,0.0711 -14.697601,-2e-5 -20.671413,-0.032 -13.275137,-0.0711 z"
         id="path310" /><path
         style="fill:#bdbdbd;stroke-width:1"
         d="m 84.463827,115.67463 c 9.5e-5,-4.94771 0.03579,-6.93438 0.07931,-4.41483 0.04353,2.51955 0.04345,6.56767 -1.74e-4,8.99583 -0.04362,2.42816 -0.07924,0.36671 -0.07914,-4.581 z m 53.446003,-0.13229 c 0,-5.02047 0.0356,-7.0743 0.0791,-4.56406 0.0435,2.51023 0.0435,6.61789 0,9.12812 -0.0435,2.51023 -0.0791,0.45641 -0.0791,-4.56406 z M 86.130993,87.033504 c 12.40565,-0.03802 32.705807,-0.03802 45.111457,0 12.40565,0.03803 2.25557,0.06914 -22.55573,0.06914 -24.8113,0 -34.961377,-0.03111 -22.555727,-0.06914 z M 64.76589,81.146506 c 0,-0.526815 0.17639,-0.529167 39.6875,-0.529167 39.51111,0 39.6875,0.0024 39.6875,0.529167 0,0.526814 -0.17639,0.529166 -39.6875,0.529166 -39.51111,0 -39.6875,-0.0024 -39.6875,-0.529166 z m -9.504112,-2.006424 c 0.0127,-0.308224 0.07539,-0.370919 0.159853,-0.159852 0.07643,0.190996 0.06703,0.419199 -0.02089,0.507118 -0.08792,0.08792 -0.150453,-0.06835 -0.138964,-0.347266 z m 9.504112,-1.433159 c 0,-0.526815 0.17639,-0.529167 39.6875,-0.529167 39.51111,0 39.6875,0.0024 39.6875,0.529167 0,0.526814 -0.17639,0.529166 -39.6875,0.529166 -39.51111,0 -39.6875,-0.0024 -39.6875,-0.529166 z m 0,-3.439584 c 0,-0.526814 0.17639,-0.529166 39.6875,-0.529166 39.51111,0 39.6875,0.0024 39.6875,0.529166 0,0.526815 -0.17639,0.529167 -39.6875,0.529167 -39.51111,0 -39.6875,-0.0024 -39.6875,-0.529167 z"
         id="path308" /><path
         style="fill:#e84643;stroke-width:1"
         d="m 63.393364,203.46784 c 0.190995,-0.0764 0.419198,-0.067 0.507119,0.0209 0.08792,0.0879 -0.06835,0.15045 -0.347266,0.13896 -0.308226,-0.0127 -0.370919,-0.0754 -0.159853,-0.15985 z M 68.73464,145.44025 V 87.231922 h 42.46562 42.46563 v 58.208328 58.20833 H 111.20026 68.73464 Z m 69.32083,-29.89917 v -8.99709 l -26.78906,0.0674 -26.789063,0.0674 -0.06966,8.92968 -0.06967,8.92969 h 26.858723 26.85873 z m -80.202495,85.26323 c -0.329108,-0.41964 -0.31975,-0.429 0.09989,-0.0999 0.254662,0.19972 0.463021,0.40808 0.463021,0.46302 0,0.21776 -0.217272,0.0776 -0.562915,-0.36313 z m -0.115188,-116.54895 -0.777105,-0.859896 0.859896,0.777105 c 0.801543,0.724371 0.981512,0.942686 0.777105,0.942686 -0.04554,0 -0.432488,-0.386953 -0.859896,-0.859895 z"
         id="path306" /><path
         style="fill:#cd0534;stroke-width:1"
         d="m 62.925793,203.35956 c -2.953493,-0.57896 -5.50763,-2.62469 -6.848712,-5.48547 l -0.703899,-1.50155 -0.05607,-58.34062 c -0.04652,-48.401325 0.0031,-58.175832 0.290984,-57.373354 0.961281,2.679148 2.532659,4.414266 5.173515,5.712602 1.268151,0.623467 1.827683,0.720713 4.696354,0.816215 l 3.256677,0.10842 v 58.176387 58.17639 l -2.315104,-0.029 c -1.273308,-0.0159 -2.845491,-0.13296 -3.493743,-0.26003 z"
         id="path304" /></g></g></svg>
